<?xml version="1.0" encoding="utf-8"?>
<!-- Generator: Adobe Illustrator 25.0.1, SVG Export Plug-In . SVG Version: 6.00 Build 0)  -->
<svg version="1.1" id="Layer_1" xmlns="http://www.w3.org/2000/svg" xmlns:xlink="http://www.w3.org/1999/xlink" x="0px" y="0px"
	 viewBox="0 0 413.508 412.357" style="enable-background:new 0 0 413.508 412.357;" xml:space="preserve">
<style type="text/css">
	.st0{fill:#F4FBFD;}
</style>
<path class="st0" d="M200.019,389.018C95.61,388.95,11.024,304.255,11.092,199.845c0.049-75.892,45.477-144.399,115.368-173.978
	c96.18-40.626,207.084,4.41,247.71,100.59s-4.41,207.084-100.59,247.71C250.308,384.016,225.289,389.066,200.019,389.018
	 M200.019,400.018c128.314-1.249,171.832,28.379,200,0c31.994-32.234-3.423-91.339,0-200c0.233-7.389,1.014-26.704-5-51
	c0,0-7.055-28.502-24-55c-21.326-33.348-84.608-95.215-171-94c-105.745,1.488-198.471,96.815-200,200
	c-1.08,72.875,43.568,133.593,82,162c30.838,22.794,66,32,66,32C172.424,400.407,191.882,400.097,200.019,400.018z"/>
</svg>
